<svg xmlns="http://www.w3.org/2000/svg" width="90" height="60" viewBox="0 0 90 60">
  <rect width="90" height="60" fill="#F7F5EF"/>
  <g fill="#fff" stroke="#E6E2D8">
    <rect x="6" y="10" width="24" height="16" rx="3"/><rect x="33" y="10" width="24" height="16" rx="3"/><rect x="60" y="10" width="24" height="16" rx="3"/>
    <rect x="6" y="32" width="24" height="16" rx="3"/><rect x="33" y="32" width="24" height="16" rx="3"/><rect x="60" y="32" width="24" height="16" rx="3"/>
  </g>
  <g fill="#2F3B34">
    <rect x="11" y="16.5" width="14" height="3" rx="1"/><rect x="38" y="16.5" width="14" height="3" rx="1"/><rect x="65" y="16.5" width="14" height="3" rx="1"/>
    <rect x="11" y="38.5" width="14" height="3" rx="1"/><rect x="38" y="38.5" width="14" height="3" rx="1"/><rect x="65" y="38.5" width="14" height="3" rx="1"/>
  </g>
</svg>
